<svg viewBox="0 0 344 297" version="1.1" xmlns="http://www.w3.org/2000/svg" xmlns:xlink="http://www.w3.org/1999/xlink">
  <g id="logo-text">
    <path id="logo-m" class="icon-light" d="M2.1588468,273.825104 L2.1588468,222.928306 C2.1588468,221.507938 3.30931038,220.355979 4.72783576,220.355979 L5.12271435,220.355979 C6.54123974,220.355979 7.69170331,221.507938 7.69170331,222.928306 L7.69170331,268.679689 C7.69170331,270.100818 8.84216689,271.252776 10.2606923,271.252776 L21.0909969,271.252776 C22.5102817,271.252776 23.6599859,272.403975 23.6599859,273.825104 C23.6599859,275.246233 22.5102817,276.397431 21.0909969,276.397431 L4.72783576,276.397431 C3.30931038,276.397431 2.1588468,275.246233 2.1588468,273.825104"></path>
    <path id="logo-a" class="icon-light" d="M48.976943,227.467403 C48.851645,226.930583 48.0907444,226.92526 47.9578525,227.4598 L40.8348503,256.204016 C40.6229828,257.096689 41.2995921,257.954385 42.216166,257.954385 L54.2827444,257.954385 C55.1970402,257.954385 55.8728901,257.102012 55.6655788,256.210099 L48.976943,227.467403 Z M59.7563691,274.317518 L57.1478923,263.565906 C56.9800689,262.87397 56.3611726,262.387334 55.6503912,262.387334 L40.8264971,262.387334 C40.1217907,262.387334 39.5074508,262.866366 39.3335523,263.549938 L36.592943,274.344892 C36.2861528,275.552357 35.2002366,276.397887 33.9563691,276.397887 L33.9563691,276.397887 C32.182453,276.397887 30.8831506,274.724316 31.3205545,273.002841 L43.7660645,223.987956 C44.3082631,221.85132 46.22874,220.356435 48.4301881,220.356435 L48.4301881,220.356435 C50.6430269,220.356435 52.5710976,221.867288 53.1019055,224.018371 L65.1988592,273.020329 C65.6225943,274.738002 64.3248106,276.397887 62.5577289,276.397887 L62.3997775,276.397887 C61.1445192,276.397887 60.052528,275.53791 59.7563691,274.317518 L59.7563691,274.317518 Z"></path>
    <path id="logo-m" class="icon-light" d="M115.15138,276.397659 C113.710833,276.397659 112.542903,275.228212 112.542903,273.785793 L112.542903,229.755885 C112.542903,229.422843 112.072087,229.356691 111.980961,229.676806 L99.2795391,273.929502 C98.8679541,275.38941 97.537517,276.397659 96.0225501,276.397659 C94.5060645,276.397659 93.1741086,275.387129 92.7640424,273.92418 L80.1400777,229.688212 C80.0489519,229.368097 79.5781351,229.434249 79.5781351,229.76729 L79.5781351,273.785793 C79.5781351,275.228212 78.4102057,276.397659 76.9696583,276.397659 L76.9696583,276.397659 C75.5291108,276.397659 74.3611815,275.228212 74.3611815,273.785793 L74.3611815,224.777751 C74.3611815,222.335447 76.3378525,220.356207 78.7769872,220.356207 L78.7769872,220.356207 C81.0277951,220.356207 83.0044662,221.854134 83.6172874,224.022705 L95.9420556,267.690677 L96.2579585,267.690677 L108.432369,224.037912 C109.039875,221.861737 111.020343,220.356207 113.277226,220.356207 L113.581738,220.356207 C116.020113,220.356207 117.997543,222.335447 117.997543,224.777751 L117.997543,273.785793 C117.997543,275.228212 116.829614,276.397659 115.388307,276.397659 L115.15138,276.397659 Z"></path>
    <path id="logo-p1" class="icon-light" d="M151.114112,235.59468 C151.114112,233.753827 150.877185,232.163896 150.402571,230.823366 C149.927958,229.482076 149.268814,228.390947 148.42666,227.55074 C147.582986,226.709012 146.620849,226.090832 145.541008,225.6962 C144.459649,225.30309 143.287922,225.105394 142.022792,225.105394 L135.633353,225.105394 C135.058501,225.105394 134.59224,225.57226 134.59224,226.147859 L134.59224,245.592767 C134.59224,246.169127 135.058501,246.635993 135.633353,246.635993 L142.102527,246.635993 C144.578872,246.635993 146.699825,245.728873 148.466147,243.913873 C150.230951,242.101915 151.114112,239.327329 151.114112,235.59468 M156.568752,235.55362 C156.568752,238.140394 156.186024,240.42226 155.422845,242.40074 C154.658147,244.379979 153.643613,246.029979 152.379242,247.347698 C150.652408,249.149012 148.557273,250.361039 146.093079,250.979219 C144.917556,251.274242 143.701785,251.385256 142.490571,251.385256 L135.670562,251.385256 C135.075207,251.385256 134.59224,251.86809 134.59224,252.464219 L134.59224,273.667099 C134.59224,275.17491 133.371154,276.397583 131.8653,276.397583 C130.358686,276.397583 129.138359,275.17491 129.138359,273.667099 L129.138359,223.086615 C129.138359,221.578804 130.358686,220.356131 131.8653,220.356131 L142.339454,220.356131 C143.972125,220.356131 145.632134,220.593366 147.319481,221.068597 C149.006068,221.543827 150.533185,222.37415 151.904629,223.561846 C153.274554,224.748781 154.394642,226.320463 155.264134,228.271569 C156.133626,230.224956 156.568752,232.652053 156.568752,235.55362"></path>
    <path id="logo-p2" class="icon-light" d="M219.225657,235.59468 C219.225657,233.753827 218.988729,232.163896 218.514116,230.823366 C218.039502,229.482076 217.380358,228.390947 216.538204,227.55074 C215.694531,226.709012 214.732394,226.090832 213.652553,225.6962 C212.571193,225.30309 211.399467,225.105394 210.134336,225.105394 L203.860323,225.105394 C203.221683,225.105394 202.703785,225.623965 202.703785,226.263435 L202.703785,245.477952 C202.703785,246.117422 203.221683,246.635993 203.860323,246.635993 L210.214072,246.635993 C212.690416,246.635993 214.81137,245.728873 216.577692,243.913873 C218.342495,242.101915 219.225657,239.327329 219.225657,235.59468 M224.680297,235.55362 C224.680297,238.140394 224.297568,240.42226 223.534389,242.40074 C222.769692,244.379979 221.755158,246.029979 220.490787,247.347698 C218.763952,249.149012 216.668818,250.361039 214.204623,250.979219 C213.0291,251.274242 211.81333,251.385256 210.601356,251.385256 L203.782107,251.385256 C203.186751,251.385256 202.703785,251.86809 202.703785,252.464219 L202.703785,273.667099 C202.703785,275.17491 201.482698,276.397583 199.976844,276.397583 C198.47023,276.397583 197.249904,275.17491 197.249904,273.667099 L197.249904,223.086615 C197.249904,221.578804 198.47023,220.356131 199.976844,220.356131 L210.450999,220.356131 C212.08367,220.356131 213.743679,220.593366 215.431025,221.068597 C217.117612,221.543827 218.644729,222.37415 220.016173,223.561846 C221.386098,224.748781 222.506186,226.320463 223.375679,228.271569 C224.245171,230.224956 224.680297,232.652053 224.680297,235.55362"></path>
    <path id="logo-o" class="icon-light" d="M264.597966,248.297475 C264.597966,244.921438 264.333701,241.755263 263.807449,238.798949 C263.280438,235.844157 262.476253,233.285516 261.396411,231.120747 C260.315052,228.957498 258.985374,227.242866 257.404341,225.976092 C255.823308,224.710078 254.005347,224.076691 251.949701,224.076691 C249.78774,224.076691 247.904473,224.710078 246.296862,225.976092 C244.68925,227.242866 243.358813,228.957498 242.305551,231.120747 C241.250769,233.285516 240.460253,235.844157 239.934001,238.798949 C239.40623,241.755263 239.142725,244.921438 239.142725,248.297475 C239.142725,251.675032 239.40623,254.841207 239.934001,257.796 C240.460253,260.752313 241.250769,263.336806 242.305551,265.553281 C243.358813,267.769756 244.68925,269.511 246.296862,270.777014 C247.904473,272.043788 249.78774,272.677175 251.949701,272.677175 C254.056985,272.677175 255.902283,272.043788 257.483317,270.777014 C259.06435,269.511 260.381118,267.769756 261.435899,265.553281 C262.489921,263.336806 263.280438,260.752313 263.807449,257.796 C264.333701,254.841207 264.597966,251.675032 264.597966,248.297475 M270.369268,248.297475 C270.369268,252.678719 269.946292,256.675977 269.104138,260.289249 C268.260464,263.904802 267.04925,267.005585 265.468217,269.590078 C263.886425,272.176092 261.962151,274.181184 259.696915,275.606115 C257.430919,277.031046 254.847502,277.743512 251.949701,277.743512 C249.050381,277.743512 246.455573,277.031046 244.162999,275.606115 C241.870425,274.181184 239.920332,272.176092 238.31348,269.590078 C236.705109,267.005585 235.479467,263.904802 234.637312,260.289249 C233.794398,256.675977 233.372941,252.678719 233.372941,248.297475 C233.372941,243.971737 233.77997,240.000332 234.597824,236.384779 C235.41416,232.770747 236.613224,229.68441 238.194257,227.123488 C239.77529,224.564848 241.712473,222.572682 244.005047,221.147751 C246.296862,219.72282 248.946345,219.010355 251.949701,219.010355 C254.847502,219.010355 257.430919,219.72282 259.696915,221.147751 C261.962151,222.572682 263.886425,224.564848 265.468217,227.123488 C267.04925,229.68441 268.260464,232.770747 269.104138,236.384779 C269.946292,240.000332 270.369268,243.971737 270.369268,248.297475"></path>
    <path id="logo-s" class="icon-light" d="M306.444768,262.070945 C306.444768,264.552028 306.075709,266.754055 305.338349,268.680069 C304.59947,270.607604 303.585695,272.242396 302.294746,273.587488 C301.003038,274.933341 299.48883,275.96288 297.749845,276.674585 C296.010102,277.387051 294.164804,277.742903 292.21623,277.742903 C289.370066,277.742903 286.747921,277.135369 284.349792,275.922581 C282.845457,275.161452 281.523373,274.245207 280.382781,273.173088 C279.251302,272.110092 279.223965,270.313341 280.247611,269.145415 L280.345572,269.034401 C281.150517,268.115876 282.544742,268.114355 283.40664,268.978894 C284.319417,269.894378 285.358252,270.652465 286.523903,271.252396 C288.367682,272.202097 290.239558,272.677327 292.136494,272.677327 C294.665996,272.677327 296.786949,271.780853 298.500115,269.985622 C300.212521,268.192673 301.069863,265.633272 301.069863,262.30818 C301.069863,260.724332 300.804839,259.327535 300.279347,258.113226 C299.751576,256.899677 299.040035,255.816912 298.144724,254.867212 C297.247894,253.917512 296.234119,253.074263 295.101121,252.334424 C293.966605,251.596866 292.76906,250.909493 291.503929,250.276106 C289.975294,249.538548 288.525634,248.707465 287.156468,247.782857 C285.785024,246.86053 284.587479,245.792212 283.559276,244.577143 C282.531832,243.363594 281.701828,241.925737 281.069263,240.263571 C280.436698,238.601406 280.120795,236.661705 280.120795,234.445991 C280.120795,231.860737 280.515673,229.604724 281.30619,227.677949 C282.096706,225.751935 283.164397,224.142995 284.507744,222.849608 C285.85185,221.556982 287.366057,220.593594 289.054163,219.960207 C290.739232,219.32682 292.504795,219.010507 294.350093,219.010507 C296.879594,219.010507 299.158499,219.445438 301.188327,220.31682 C302.306896,220.796613 303.325227,221.425438 304.244079,222.202535 C305.495541,223.261728 305.620079,225.153525 304.539479,226.386843 L304.470375,226.465161 C303.673784,227.373802 302.304618,227.378364 301.43057,226.54424 C300.738013,225.882719 299.985466,225.364147 299.172168,224.987005 C297.749845,224.327005 296.194631,223.997005 294.508044,223.997005 C293.401625,223.997005 292.307355,224.1947 291.227514,224.590853 C290.146914,224.987005 289.184777,225.607465 288.341863,226.450714 C287.498949,227.296244 286.812468,228.377488 286.286976,229.696728 C285.759205,231.015968 285.496459,232.573203 285.496459,234.366152 C285.496459,235.94924 285.733386,237.322465 286.208,238.482788 C286.682614,239.643871 287.32657,240.67265 288.144424,241.569124 C288.961519,242.46788 289.909987,243.259424 290.989828,243.943756 C292.069669,244.630369 293.190517,245.263756 294.350093,245.843917 C295.824812,246.583756 297.287382,247.427005 298.737801,248.376705 C300.186702,249.326406 301.49132,250.435023 302.650896,251.701037 C303.808954,252.967811 304.731603,254.445968 305.417325,256.133986 C306.101528,257.823525 306.444768,259.802765 306.444768,262.070945"></path>
    <path id="logo-t" class="icon-light" d="M331.740994,226.128318 L331.740994,273.666567 C331.740994,275.175138 330.519908,276.397811 329.013294,276.397811 C327.506681,276.397811 326.285595,275.175138 326.285595,273.666567 L326.285595,226.128318 C326.285595,225.563364 325.828447,225.105622 325.264226,225.105622 L317.906575,225.105622 C316.596641,225.105622 315.535025,224.042627 315.535025,222.730991 C315.535025,221.419355 316.596641,220.356359 317.906575,220.356359 L340.199749,220.356359 C341.508924,220.356359 342.571299,221.419355 342.571299,222.730991 C342.571299,224.042627 341.508924,225.105622 340.199749,225.105622 L332.762363,225.105622 C332.198142,225.105622 331.740994,225.563364 331.740994,226.128318"></path>
    <path id="logo-dot" class="icon-light" d="M179.593819,248.590977 C179.593819,251.950286 176.873713,254.673926 173.518764,254.673926 C170.163815,254.673926 167.443709,251.950286 167.443709,248.590977 C167.443709,245.231668 170.163815,242.508028 173.518764,242.508028 C176.873713,242.508028 179.593819,245.231668 179.593819,248.590977"></path>
  </g>

  <g id="logo-text-lines">
    <path id="logo-left-line" class="icon-light" d="M121.880795,199.21659 L1.89845475,199.21659 C0.849748344,199.21659 0,198.365737 0,197.315668 C0,196.265599 0.849748344,195.414747 1.89845475,195.414747 L121.880795,195.414747 C122.929501,195.414747 123.779249,196.265599 123.779249,197.315668 C123.779249,198.365737 122.929501,199.21659 121.880795,199.21659"></path>
    <path id="logo-right-line" class="icon-light" d="M342.101545,199.21659 L222.878587,199.21659 C221.829881,199.21659 220.980132,198.365737 220.980132,197.315668 C220.980132,196.265599 221.829881,195.414747 222.878587,195.414747 L342.101545,195.414747 C343.150252,195.414747 344,196.265599 344,197.315668 C344,198.365737 343.150252,199.21659 342.101545,199.21659"></path>
    <path id="logo-bottom-line" class="icon-light" d="M342.101545,296.543779 L1.89845475,296.543779 C0.849748344,296.543779 0,295.692926 0,294.642857 C0,293.592788 0.849748344,292.741935 1.89845475,292.741935 L342.101545,292.741935 C343.150252,292.741935 344,293.592788 344,294.642857 C344,295.692926 343.150252,296.543779 342.101545,296.543779"></path>
    <path id="logo-lightpost-full" class="icon-light" d="M207.690949,199.21659 L136.819355,199.215829 L136.815558,199.215829 L136.810243,199.215829 C135.762296,199.212788 134.915585,198.361175 134.917104,197.311866 C134.918623,196.263318 135.768371,195.413986 136.815558,195.413986 C156.115249,195.413986 171.81623,179.692604 171.81623,160.367834 L171.81623,28.307765 C171.72966,26.8524194 170.03472,4.56221198 148.180468,4.56221198 C147.131762,4.56221198 146.282013,3.71135945 146.282013,2.66129032 C146.282013,1.6112212 147.131762,0.760368664 148.180468,0.760368664 C161.649625,0.760368664 168.414199,8.27281106 171.718269,14.5739862 C175.225095,21.2652304 175.596433,27.8796774 175.610861,28.157212 C175.61238,28.1899078 175.613139,28.2218433 175.613139,28.2537788 L175.613139,160.367834 C175.613139,175.792673 166.587126,189.147788 153.54702,195.414747 L207.690949,195.414747 C208.739656,195.414747 209.589404,196.265599 209.589404,197.315668 C209.589404,198.365737 208.739656,199.21659 207.690949,199.21659"></path>
  </g>

  <!--  <path id="logo-lightpost-small" class="icon-light"d="M64.1349137,33.2597191 C63.0148625,33.2597191 62.0802165,32.373928 62.0226478,31.2338347 C61.965079,30.1475033 60.3218292,4.53721865 35.6696958,4.53721865 C34.5005418,4.53721865 33.5531968,3.58230516 33.5531968,2.40381051 C33.5531968,1.22531585 34.5005418,0.27040237 35.6696958,0.27040237 C64.3719616,0.27040237 66.2344807,30.710723 66.2505661,31.0187872 C66.3089815,32.1947217 65.4115859,33.1974236 64.2441251,33.257159 C64.2077213,33.2588657 64.1704709,33.2597191 64.1349137,33.2597191" transform="translate(112,0)"></path> -->

  <g id="logo-showerhead">
    <path id="logo-lightbulb" class="icon-light" d="M127.573957,11.6699101 C125.200129,10.39097 124.047387,7.77073963 124.70729,5.15050922 C125.367952,2.52495622 127.626354,0.760140553 130.328994,0.760140553 L140.384182,0.760140553 C141.432888,0.760140553 142.282637,1.61099309 142.282637,2.66106221 C142.282637,3.71113134 141.432888,4.56198387 140.384182,4.56198387 L130.328994,4.56198387 C129.17929,4.56198387 128.572544,5.34592396 128.388774,6.07891935 C128.299926,6.43249078 128.107802,7.63995622 129.373692,8.32276728 C130.566681,8.9652788 132.058107,9.29147696 133.806204,9.29147696 C137.928888,9.29147696 139.812155,8.2277212 140.665701,7.33428802 C141.39167,6.57620046 142.593012,6.55110829 143.350116,7.2765 C144.107219,8.00265207 144.133798,9.2055553 143.408588,9.96440323 C141.422045,12.0402097 138.191634,13.0933203 133.806204,13.0933203 C131.422504,13.0933203 129.32661,12.614288 127.573957,11.6699101 Z"></path>
    <path id="logo-flash-1" class="icon-white" d="M134.410596,30.7949309 C133.36189,30.7949309 132.512141,29.9440783 132.512141,28.8940092 L132.512141,19.0092166 C132.512141,17.9591475 133.36189,17.1082949 134.410596,17.1082949 C135.459302,17.1082949 136.309051,17.9591475 136.309051,19.0092166 L136.309051,28.8940092 C136.309051,29.9440783 135.459302,30.7949309 134.410596,30.7949309"></path>
    <path id="logo-flash-2" class="icon-white" d="M118.083885,24.3458641 C117.597881,24.3458641 117.112636,24.1603341 116.741298,23.7892742 C116.000141,23.046394 116.000141,21.8434908 116.741298,21.1006106 L123.71698,14.1166244 C124.458896,13.3737442 125.660238,13.3737442 126.401395,14.1166244 C127.143311,14.8587442 127.143311,16.0616475 126.401395,16.8045276 L119.426472,23.7892742 C119.055135,24.1603341 118.56989,24.3458641 118.083885,24.3458641"></path>
    <path id="logo-flash-3" class="icon-white" d="M150.425125,24.3458641 C149.939121,24.3458641 149.453875,24.1603341 149.082538,23.7892742 L142.107615,16.8045276 C141.365699,16.0616475 141.365699,14.8587442 142.107615,14.1166244 C142.848772,13.3737442 144.050114,13.3737442 144.79203,14.1166244 L151.767712,21.1006106 C152.508869,21.8434908 152.508869,23.046394 151.767712,23.7892742 C151.396374,24.1603341 150.911129,24.3458641 150.425125,24.3458641"></path>
  </g>
</svg>
